<svg width="256" height="256" viewBox="0 0 256 256" fill="none" xmlns="http://www.w3.org/2000/svg">
<path d="M144.992 144.224C155.485 134.159 172.151 134.507 182.216 145L227.776 192.5C237.841 202.994 237.493 219.659 227 229.724C216.507 239.789 199.841 239.442 189.776 228.948L144.216 181.448C134.151 170.955 134.499 154.289 144.992 144.224Z" fill="white"/>
<path d="M219.5 119.25C219.5 173.788 175.288 218 120.75 218C66.2119 218 22 173.788 22 119.25C22 64.7119 66.2119 20.5 120.75 20.5C175.288 20.5 219.5 64.7119 219.5 119.25Z" fill="#03989E"/>
<path d="M219.5 119.25C219.5 173.788 175.288 218 120.75 218C66.2119 218 22 173.788 22 119.25C22 64.7119 66.2119 20.5 120.75 20.5C175.288 20.5 219.5 64.7119 219.5 119.25Z" fill="#03989E"/>
<path d="M144.992 144.224C155.485 134.159 172.151 134.507 182.216 145L227.776 192.5C237.841 202.994 237.493 219.659 227 229.724C216.507 239.789 199.841 239.442 189.776 228.948L144.216 181.448C134.151 170.955 134.499 154.289 144.992 144.224Z" fill="#03989E"/>
<ellipse cx="120.5" cy="119.25" rx="79" ry="79.25" fill="#E6F8F9"/>
<path d="M117.384 160.275C92.6004 125.1 88 121.49 88 108.562C88 90.8548 102.663 76.5 120.75 76.5C138.837 76.5 153.5 90.8548 153.5 108.562C153.5 121.49 148.9 125.1 124.116 160.275C122.489 162.575 119.01 162.575 117.384 160.275ZM120.75 121.922C128.286 121.922 134.396 115.941 134.396 108.562C134.396 101.184 128.286 95.2031 120.75 95.2031C113.214 95.2031 107.104 101.184 107.104 108.562C107.104 115.941 113.214 121.922 120.75 121.922Z" fill="#03989E"/>
</svg>
